<?xml version="1.0" encoding="us-ascii" standalone="no"?><svg xmlns="http://www.w3.org/2000/svg" xmlns:xlink="http://www.w3.org/1999/xlink" contentStyleType="text/css" height="897px" preserveAspectRatio="none" style="width:1407px;height:897px;background:#FFFFFF;" version="1.1" viewBox="0 0 1407 897" width="1407px" zoomAndPan="magnify"><defs/><g><!--cluster price_list--><g id="cluster_price_list"><rect fill="#FFFFFF" height="884.17" rx="2.5" ry="2.5" style="stroke:#808080;stroke-width:1.0;" width="1394" x="7" y="7"/><rect fill="#FFFFFF" height="10" style="stroke:#808080;stroke-width:1.0;" width="15" x="1381" y="12"/><rect fill="#FFFFFF" height="2" style="stroke:#808080;stroke-width:1.0;" width="4" x="1379" y="14"/><rect fill="#FFFFFF" height="2" style="stroke:#808080;stroke-width:1.0;" width="4" x="1379" y="18"/><text fill="#000000" font-family="sans-serif" font-size="14" font-style="italic" lengthAdjust="spacing" textLength="94" x="657" y="33.5352">&#171;Spring Boot&#187;</text><text fill="#000000" font-family="sans-serif" font-size="14" font-weight="bold" lengthAdjust="spacing" textLength="68" x="670" y="50.0234">price-list</text></g><!--cluster openapi--><g id="cluster_openapi"><rect fill="#FFFFFF" height="252.96" rx="2.5" ry="2.5" style="stroke:#808080;stroke-width:1.0;" width="250" x="31" y="100.75"/><rect fill="#FFFFFF" height="10" style="stroke:#808080;stroke-width:1.0;" width="15" x="261" y="105.75"/><rect fill="#FFFFFF" height="2" style="stroke:#808080;stroke-width:1.0;" width="4" x="259" y="107.75"/><rect fill="#FFFFFF" height="2" style="stroke:#808080;stroke-width:1.0;" width="4" x="259" y="111.75"/><text fill="#000000" font-family="sans-serif" font-size="14" font-style="italic" lengthAdjust="spacing" textLength="94" x="109" y="127.2852">&#171;Spring Boot&#187;</text><text fill="#000000" font-family="sans-serif" font-size="14" font-weight="bold" lengthAdjust="spacing" textLength="57" x="127.5" y="143.7734">openapi</text></g><!--cluster app--><g id="cluster_app"><rect fill="#FFFFFF" height="801.17" rx="2.5" ry="2.5" style="stroke:#808080;stroke-width:1.0;" width="1072" x="305" y="66"/><rect fill="#FFFFFF" height="10" style="stroke:#808080;stroke-width:1.0;" width="15" x="1357" y="71"/><rect fill="#FFFFFF" height="2" style="stroke:#808080;stroke-width:1.0;" width="4" x="1355" y="73"/><rect fill="#FFFFFF" height="2" style="stroke:#808080;stroke-width:1.0;" width="4" x="1355" y="77"/><text fill="#000000" font-family="sans-serif" font-size="14" font-style="italic" lengthAdjust="spacing" textLength="94" x="794" y="92.5352">&#171;Spring Boot&#187;</text><text fill="#000000" font-family="sans-serif" font-size="14" font-weight="bold" lengthAdjust="spacing" textLength="26" x="828" y="109.0234">app</text></g><!--cluster main--><g id="cluster_main"><rect fill="#FFFFFF" height="718.17" rx="2.5" ry="2.5" style="stroke:#6495ED;stroke-width:1.0;" width="808" x="329" y="125"/><rect fill="#FFFFFF" height="10" style="stroke:#6495ED;stroke-width:1.0;" width="15" x="1117" y="130"/><rect fill="#FFFFFF" height="2" style="stroke:#6495ED;stroke-width:1.0;" width="4" x="1115" y="132"/><rect fill="#FFFFFF" height="2" style="stroke:#6495ED;stroke-width:1.0;" width="4" x="1115" y="136"/><text fill="#000000" font-family="sans-serif" font-size="14" font-weight="bold" lengthAdjust="spacing" textLength="36" x="715" y="151.5352">main</text></g><!--cluster infrastructure--><g id="cluster_infrastructure"><rect fill="#FFFFFF" height="425.46" rx="2.5" ry="2.5" style="stroke:#6495ED;stroke-width:1.0;" width="744" x="361" y="385.71"/><rect fill="#FFFFFF" height="10" style="stroke:#6495ED;stroke-width:1.0;" width="15" x="1085" y="390.71"/><rect fill="#FFFFFF" height="2" style="stroke:#6495ED;stroke-width:1.0;" width="4" x="1083" y="392.71"/><rect fill="#FFFFFF" height="2" style="stroke:#6495ED;stroke-width:1.0;" width="4" x="1083" y="396.71"/><text fill="#000000" font-family="sans-serif" font-size="14" font-weight="bold" lengthAdjust="spacing" textLength="99" x="683.5" y="412.2452">infrastructure</text></g><!--cluster adapterDatabase--><g id="cluster_adapterDatabase"><rect fill="#FFFFFF" height="326.46" rx="2.5" ry="2.5" style="stroke:#6495ED;stroke-width:1.0;" width="166" x="401" y="444.71"/><rect fill="#FFFFFF" height="10" style="stroke:#6495ED;stroke-width:1.0;" width="15" x="547" y="449.71"/><rect fill="#FFFFFF" height="2" style="stroke:#6495ED;stroke-width:1.0;" width="4" x="545" y="451.71"/><rect fill="#FFFFFF" height="2" style="stroke:#6495ED;stroke-width:1.0;" width="4" x="545" y="455.71"/><text fill="#000000" font-family="sans-serif" font-size="14" font-weight="bold" lengthAdjust="spacing" textLength="64" x="452" y="471.2452">database</text></g><!--cluster restApi--><g id="cluster_restApi"><rect fill="#FFFFFF" height="310.46" rx="2.5" ry="2.5" style="stroke:#6495ED;stroke-width:1.0;" width="298" x="767" y="452.71"/><rect fill="#FFFFFF" height="10" style="stroke:#6495ED;stroke-width:1.0;" width="15" x="1045" y="457.71"/><rect fill="#FFFFFF" height="2" style="stroke:#6495ED;stroke-width:1.0;" width="4" x="1043" y="459.71"/><rect fill="#FFFFFF" height="2" style="stroke:#6495ED;stroke-width:1.0;" width="4" x="1043" y="463.71"/><text fill="#000000" font-family="sans-serif" font-size="14" font-weight="bold" lengthAdjust="spacing" textLength="59" x="886.5" y="479.2452">rest-api</text></g><!--entity generator--><g id="elem_generator"><rect fill="#FFFFFF" height="62.9766" rx="2.5" ry="2.5" style="stroke:#6495ED;stroke-width:0.5;" width="218" x="47" y="274.73"/><rect fill="#FFFFFF" height="10" style="stroke:#6495ED;stroke-width:0.5;" width="15" x="245" y="279.73"/><rect fill="#FFFFFF" height="2" style="stroke:#6495ED;stroke-width:0.5;" width="4" x="243" y="281.73"/><rect fill="#FFFFFF" height="2" style="stroke:#6495ED;stroke-width:0.5;" width="4" x="243" y="285.73"/><text fill="#000000" font-family="sans-serif" font-size="14" font-style="italic" lengthAdjust="spacing" textLength="178" x="62" y="308.2652">&#171;Generator Maven Plugin&#187;</text><text fill="#000000" font-family="sans-serif" font-size="14" lengthAdjust="spacing" textLength="68" x="117" y="324.7534">generator</text></g><!--entity specification--><g id="elem_specification"><rect fill="#FFFFFF" height="62.9766" rx="2.5" ry="2.5" style="stroke:#6495ED;stroke-width:0.5;" width="192" x="60" y="151.75"/><rect fill="#FFFFFF" height="10" style="stroke:#6495ED;stroke-width:0.5;" width="15" x="232" y="156.75"/><rect fill="#FFFFFF" height="2" style="stroke:#6495ED;stroke-width:0.5;" width="4" x="230" y="158.75"/><rect fill="#FFFFFF" height="2" style="stroke:#6495ED;stroke-width:0.5;" width="4" x="230" y="162.75"/><text fill="#000000" font-family="sans-serif" font-size="14" font-style="italic" lengthAdjust="spacing" textLength="152" x="75" y="185.2852">&#171;API definition (yaml)&#187;</text><text fill="#000000" font-family="sans-serif" font-size="14" lengthAdjust="spacing" textLength="86" x="108" y="201.7734">specification</text></g><g id="elem_GMN39"><path d="M1153,170.59 L1153,180.17 L1112.43,184.17 L1153,188.17 L1153,195.9005 A0,0 0 0 0 1153,195.9005 L1265,195.9005 A0,0 0 0 0 1265,195.9005 L1265,180.59 L1255,170.59 L1153,170.59 A0,0 0 0 0 1153,170.59 " fill="#FFFFE0" style="stroke:#D2B48C;stroke-width:0.5;"/><path d="M1255,170.59 L1255,180.59 L1265,180.59 L1255,170.59 " fill="#FFFFE0" style="stroke:#D2B48C;stroke-width:0.5;"/><text fill="#000000" font-family="sans-serif" font-size="13" lengthAdjust="spacing" textLength="91" x="1159" y="188.1584">Domain Model</text></g><g id="elem_GMN42"><path d="M1153,278.25 L1153,303.17 L1118.31,307.17 L1153,311.17 L1153,334.1816 A0,0 0 0 0 1153,334.1816 L1361,334.1816 A0,0 0 0 0 1361,334.1816 L1361,288.25 L1351,278.25 L1153,278.25 A0,0 0 0 0 1153,278.25 " fill="#FFFFE0" style="stroke:#D2B48C;stroke-width:0.5;"/><path d="M1351,278.25 L1351,288.25 L1361,288.25 L1351,278.25 " fill="#FFFFE0" style="stroke:#D2B48C;stroke-width:0.5;"/><text fill="#000000" font-family="sans-serif" font-size="13" lengthAdjust="spacing" textLength="112" x="1159" y="295.8184">Ports &#171;interfaces&#187;</text><text fill="#000000" font-family="sans-serif" font-size="13" lengthAdjust="spacing" textLength="187" x="1159" y="311.1289">Input Ports Impl &#171;Interactors&#187;</text><text fill="#000000" font-family="sans-serif" font-size="13" lengthAdjust="spacing" textLength="51" x="1159" y="326.4395">Services</text></g><!--entity domain--><g id="elem_domain"><rect fill="#FFFFFF" height="46.4883" rx="2.5" ry="2.5" style="stroke:#6495ED;stroke-width:0.5;" width="92" x="1020" y="160"/><rect fill="#FFFFFF" height="10" style="stroke:#6495ED;stroke-width:0.5;" width="15" x="1092" y="165"/><rect fill="#FFFFFF" height="2" style="stroke:#6495ED;stroke-width:0.5;" width="4" x="1090" y="167"/><rect fill="#FFFFFF" height="2" style="stroke:#6495ED;stroke-width:0.5;" width="4" x="1090" y="171"/><text fill="#000000" font-family="sans-serif" font-size="14" lengthAdjust="spacing" textLength="52" x="1035" y="193.5352">domain</text></g><!--entity application--><g id="elem_application"><rect fill="#FFFFFF" height="46.4883" rx="2.5" ry="2.5" style="stroke:#6495ED;stroke-width:0.5;" width="116" x="1002" y="282.97"/><rect fill="#FFFFFF" height="10" style="stroke:#6495ED;stroke-width:0.5;" width="15" x="1098" y="287.97"/><rect fill="#FFFFFF" height="2" style="stroke:#6495ED;stroke-width:0.5;" width="4" x="1096" y="289.97"/><rect fill="#FFFFFF" height="2" style="stroke:#6495ED;stroke-width:0.5;" width="4" x="1096" y="293.97"/><text fill="#000000" font-family="sans-serif" font-size="14" lengthAdjust="spacing" textLength="76" x="1017" y="316.5052">application</text></g><g id="elem_GMN21"><path d="M590.5,597.13 L590.5,637.7511 L751.5,637.7511 L751.5,607.13 L741.5,597.13 L590.5,597.13 " fill="#FFFFE0" style="stroke:#D2B48C;stroke-width:0.5;"/><path d="M741.5,597.13 L741.5,607.13 L751.5,607.13 L741.5,597.13 " fill="#FFFFE0" style="stroke:#D2B48C;stroke-width:1.0;"/><text fill="#000000" font-family="sans-serif" font-size="13" lengthAdjust="spacing" textLength="132" x="596.5" y="614.6984">DB Ports &#171;impl&#187; (out)</text><text fill="#000000" font-family="sans-serif" font-size="13" lengthAdjust="spacing" textLength="140" x="596.5" y="630.0089">Database Repositories</text></g><!--entity dbo--><g id="elem_dbo"><rect fill="#FFFFFF" height="46.4883" rx="2.5" ry="2.5" style="stroke:#6495ED;stroke-width:0.5;" width="67" x="446.5" y="487.71"/><rect fill="#FFFFFF" height="10" style="stroke:#6495ED;stroke-width:0.5;" width="15" x="493.5" y="492.71"/><rect fill="#FFFFFF" height="2" style="stroke:#6495ED;stroke-width:0.5;" width="4" x="491.5" y="494.71"/><rect fill="#FFFFFF" height="2" style="stroke:#6495ED;stroke-width:0.5;" width="4" x="491.5" y="498.71"/><text fill="#000000" font-family="sans-serif" font-size="14" lengthAdjust="spacing" textLength="27" x="461.5" y="521.2452">dbo</text></g><!--entity repository--><g id="elem_repository"><rect fill="#FFFFFF" height="46.4883" rx="2.5" ry="2.5" style="stroke:#6495ED;stroke-width:0.5;" width="110" x="425" y="594.19"/><rect fill="#FFFFFF" height="10" style="stroke:#6495ED;stroke-width:0.5;" width="15" x="515" y="599.19"/><rect fill="#FFFFFF" height="2" style="stroke:#6495ED;stroke-width:0.5;" width="4" x="513" y="601.19"/><rect fill="#FFFFFF" height="2" style="stroke:#6495ED;stroke-width:0.5;" width="4" x="513" y="605.19"/><text fill="#000000" font-family="sans-serif" font-size="14" lengthAdjust="spacing" textLength="70" x="440" y="627.7252">repository</text></g><!--entity adapter--><g id="elem_adapter"><rect fill="#FFFFFF" height="46.4883" rx="2.5" ry="2.5" style="stroke:#6495ED;stroke-width:0.5;" width="93" x="433.5" y="700.68"/><rect fill="#FFFFFF" height="10" style="stroke:#6495ED;stroke-width:0.5;" width="15" x="506.5" y="705.68"/><rect fill="#FFFFFF" height="2" style="stroke:#6495ED;stroke-width:0.5;" width="4" x="504.5" y="707.68"/><rect fill="#FFFFFF" height="2" style="stroke:#6495ED;stroke-width:0.5;" width="4" x="504.5" y="711.68"/><text fill="#000000" font-family="sans-serif" font-size="14" lengthAdjust="spacing" textLength="53" x="448.5" y="734.2152">adapter</text></g><!--entity api_lib--><g id="elem_api_lib"><rect fill="#FFFFFF" height="46.4883" rx="2.5" ry="2.5" style="stroke:#6495ED;stroke-width:0.5;" width="85" x="793.5" y="594.19"/><rect fill="#FFFFFF" height="10" style="stroke:#6495ED;stroke-width:0.5;" width="15" x="858.5" y="599.19"/><rect fill="#FFFFFF" height="2" style="stroke:#6495ED;stroke-width:0.5;" width="4" x="856.5" y="601.19"/><rect fill="#FFFFFF" height="2" style="stroke:#6495ED;stroke-width:0.5;" width="4" x="856.5" y="605.19"/><text fill="#000000" font-family="sans-serif" font-size="14" lengthAdjust="spacing" textLength="45" x="808.5" y="627.7252">api_lib</text></g><!--entity restApiDto--><g id="elem_restApiDto"><rect fill="#FFFFFF" height="46.4883" rx="2.5" ry="2.5" style="stroke:#6495ED;stroke-width:0.5;" width="63" x="804.5" y="487.71"/><rect fill="#FFFFFF" height="10" style="stroke:#6495ED;stroke-width:0.5;" width="15" x="847.5" y="492.71"/><rect fill="#FFFFFF" height="2" style="stroke:#6495ED;stroke-width:0.5;" width="4" x="845.5" y="494.71"/><rect fill="#FFFFFF" height="2" style="stroke:#6495ED;stroke-width:0.5;" width="4" x="845.5" y="498.71"/><text fill="#000000" font-family="sans-serif" font-size="14" lengthAdjust="spacing" textLength="23" x="819.5" y="521.2452">dto</text></g><!--entity controller--><g id="elem_controller"><rect fill="#FFFFFF" height="46.4883" rx="2.5" ry="2.5" style="stroke:#6495ED;stroke-width:0.5;" width="107" x="782.5" y="700.68"/><rect fill="#FFFFFF" height="10" style="stroke:#6495ED;stroke-width:0.5;" width="15" x="869.5" y="705.68"/><rect fill="#FFFFFF" height="2" style="stroke:#6495ED;stroke-width:0.5;" width="4" x="867.5" y="707.68"/><rect fill="#FFFFFF" height="2" style="stroke:#6495ED;stroke-width:0.5;" width="4" x="867.5" y="711.68"/><text fill="#000000" font-family="sans-serif" font-size="14" lengthAdjust="spacing" textLength="67" x="797.5" y="734.2152">controller</text></g><g id="elem_GMN32"><path d="M924.5,711.27 L924.5,720.17 L889.66,724.17 L924.5,728.17 L924.5,736.5805 A0,0 0 0 0 924.5,736.5805 L1049.5,736.5805 A0,0 0 0 0 1049.5,736.5805 L1049.5,721.27 L1039.5,711.27 L924.5,711.27 A0,0 0 0 0 924.5,711.27 " fill="#FFFFE0" style="stroke:#D2B48C;stroke-width:0.5;"/><path d="M1039.5,711.27 L1039.5,721.27 L1049.5,721.27 L1039.5,711.27 " fill="#FFFFE0" style="stroke:#D2B48C;stroke-width:0.5;"/><text fill="#000000" font-family="sans-serif" font-size="13" lengthAdjust="spacing" textLength="104" x="930.5" y="728.8384">REST Controllers</text></g><!--reverse link specification to generator--><g id="link_specification_generator"><path d="M156,220.91 C156,239.27 156,256.31 156,274.65 " fill="none" id="specification-backto-generator" style="stroke:#00008B;stroke-width:1.0;"/><polygon fill="#00008B" points="156,214.91,152,223.91,156,219.91,160,223.91,156,214.91" style="stroke:#00008B;stroke-width:1.0;"/></g><!--reverse link dbo to repository--><g id="link_dbo_repository"><path d="M480,540.58 C480,558.23 480,576.24 480,593.87 " fill="none" id="dbo-backto-repository" style="stroke:#00008B;stroke-width:1.0;"/><polygon fill="#00008B" points="480,534.58,476,543.58,480,539.58,484,543.58,480,534.58" style="stroke:#00008B;stroke-width:1.0;"/></g><!--reverse link repository to adapter--><g id="link_repository_adapter"><path d="M480,647.07 C480,664.72 480,682.73 480,700.36 " fill="none" id="repository-backto-adapter" style="stroke:#00008B;stroke-width:1.0;"/><polygon fill="#00008B" points="480,641.07,476,650.07,480,646.07,484,650.07,480,641.07" style="stroke:#00008B;stroke-width:1.0;"/></g><!--link adapterDatabase to GMN21--><g id="link_adapterDatabase_GMN21"><path d="M567.08,618.17 C567.1218,618.17 567.1637,618.17 567.2057,618.17 C567.2898,618.17 567.3745,618.17 567.4597,618.17 C567.6301,618.17 567.8027,618.17 567.9775,618.17 C573.57,618.17 581.37,618.17 590.2,618.17 " fill="none" id="adapterDatabase-GMN21" style="stroke:#00008B;stroke-width:1.0;stroke-dasharray:7.0,7.0;"/></g><!--reverse link restApiDto to api_lib--><g id="link_restApiDto_api_lib"><path d="M836,540.58 C836,558.23 836,576.24 836,593.87 " fill="none" id="restApiDto-backto-api_lib" style="stroke:#00008B;stroke-width:1.0;"/><polygon fill="#00008B" points="836,534.58,832,543.58,836,539.58,840,543.58,836,534.58" style="stroke:#00008B;stroke-width:1.0;"/></g><!--reverse link api_lib to controller--><g id="link_api_lib_controller"><path d="M836,647.07 C836,664.72 836,682.73 836,700.36 " fill="none" id="api_lib-backto-controller" style="stroke:#00008B;stroke-width:1.0;"/><polygon fill="#00008B" points="836,641.07,832,650.07,836,646.07,840,650.07,836,641.07" style="stroke:#00008B;stroke-width:1.0;"/></g><!--reverse link domain to application--><g id="link_domain_application"><path d="M1066,212.95 C1066,234.73 1066,260.83 1066,282.58 " fill="none" id="domain-backto-application" style="stroke:#00008B;stroke-width:1.0;"/><polygon fill="#00008B" points="1066,206.95,1062,215.95,1066,211.95,1070,215.95,1066,206.95" style="stroke:#00008B;stroke-width:1.0;"/></g><!--reverse link application to infrastructure--><g id="link_application_infrastructure"><path d="M1097,335.7 C1097,348.515 1097,359.5137 1097,377.9748 C1097,380.2825 1097,382.613 1097,384.961 " fill="none" id="application-backto-infrastructure" style="stroke:#00008B;stroke-width:1.0;"/><polygon fill="#00008B" points="1097,329.7,1093,338.7,1097,334.7,1101,338.7,1097,329.7" style="stroke:#00008B;stroke-width:1.0;"/></g><!--SRC=[bLHDQ-Cm4BtxL-ZO7l8FYY5fbXBOGcWAox8iYsAF4n5P8qPoIrZottTaoug_UjWS77dUU_D6ev7THHahITP2AmF-Qa4W-JDcBW45rXOD6F_qTB2ap4bi47sUYx-PuDzH5fSJOMFAPzH8uiTPUUWGf1AeYxuGNBDRjfJsl_8y8vbAuoVGHZSTl2R2pmxTIhgqyTl0oA27Bpo-gzFP_mJD2MTExzA4Wkzb_kBD5x3IoldVOjeBwKGB_mamkus4QC58gnPL4Oi53aGdC43I8mNPI_yYNkK76B7NpKcPF9-Ad8L2LQgGNg49mlL-9qgeb54X8XwkijQFKPSSnAgngroCn9EzIsiNo-TuM_g0Mal5reo5nNnV9IP2jvmIEALEE-Wi-lSfLPcAfFFK5BuXQDdZKBGV5o2zF4hNqMKfhGVQnbZY3nNb4HUY11QTukvT5y2ODY5tClUQMprC6RaTCCjwY__j51_HUwm5LjEwKxBjHkpv0Zi-ArLRpOVqW8r_lEFzHjzw8mKkec3ArcRUCWBdL-q4Syl2opfDx6JVLl4DE2urqUD0lFLBBItGU4Aj1usB2UE4BgfxJUHCIsWRH-6YXxujM0Znzktmpb-M7d49cdIaEulmvCiXXeCPlTD0JwQmh-m-o44_hYnfj-r2l689EXlKC5ECBqOwTiDpKSa2N7lDTyOsFe8xdWXcx0935dps7UK0zC6VBZSoksMtVm00]--></g></svg>