<svg xmlns="http://www.w3.org/2000/svg" xmlns:xlink="http://www.w3.org/1999/xlink" contentStyleType="text/css" data-diagram-type="DESCRIPTION" height="897px" preserveAspectRatio="none" style="width:1410px;height:897px;background:#FFFFFF;" version="1.1" viewBox="0 0 1410 897" width="1410px" zoomAndPan="magnify"><defs/><g><!--cluster people_list--><g class="cluster" data-entity="people_list" data-source-line="18" data-uid="ent0002" id="cluster_people_list"><rect fill="#FFFFFF" height="884.17" rx="2.5" ry="2.5" style="stroke:#808080;stroke-width:1;" width="1397" x="7" y="7"/><rect fill="#FFFFFF" height="10" style="stroke:#808080;stroke-width:1;" width="15" x="1384" y="12"/><rect fill="#FFFFFF" height="2" style="stroke:#808080;stroke-width:1;" width="4" x="1382" y="14"/><rect fill="#FFFFFF" height="2" style="stroke:#808080;stroke-width:1;" width="4" x="1382" y="18"/><text fill="#000000" font-family="sans-serif" font-size="14" font-style="italic" lengthAdjust="spacing" textLength="93.1328" x="658.9336" y="33.5352">&#171;Spring Boot&#187;</text><text fill="#000000" font-family="sans-serif" font-size="14" font-weight="bold" lengthAdjust="spacing" textLength="80.0898" x="665.4551" y="50.0234">people-list</text></g><!--cluster openapi--><g class="cluster" data-entity="openapi" data-source-line="21" data-uid="ent0003" id="cluster_openapi"><rect fill="#FFFFFF" height="252.96" rx="2.5" ry="2.5" style="stroke:#808080;stroke-width:1;" width="250" x="31" y="100.75"/><rect fill="#FFFFFF" height="10" style="stroke:#808080;stroke-width:1;" width="15" x="261" y="105.75"/><rect fill="#FFFFFF" height="2" style="stroke:#808080;stroke-width:1;" width="4" x="259" y="107.75"/><rect fill="#FFFFFF" height="2" style="stroke:#808080;stroke-width:1;" width="4" x="259" y="111.75"/><text fill="#000000" font-family="sans-serif" font-size="14" font-style="italic" lengthAdjust="spacing" textLength="93.1328" x="109.4336" y="127.2852">&#171;Spring Boot&#187;</text><text fill="#000000" font-family="sans-serif" font-size="14" font-weight="bold" lengthAdjust="spacing" textLength="57.6748" x="127.1626" y="143.7734">openapi</text></g><!--cluster app--><g class="cluster" data-entity="app" data-source-line="27" data-uid="ent0008" id="cluster_app"><rect fill="#FFFFFF" height="801.17" rx="2.5" ry="2.5" style="stroke:#808080;stroke-width:1;" width="1075" x="305" y="66"/><rect fill="#FFFFFF" height="10" style="stroke:#808080;stroke-width:1;" width="15" x="1360" y="71"/><rect fill="#FFFFFF" height="2" style="stroke:#808080;stroke-width:1;" width="4" x="1358" y="73"/><rect fill="#FFFFFF" height="2" style="stroke:#808080;stroke-width:1;" width="4" x="1358" y="77"/><text fill="#000000" font-family="sans-serif" font-size="14" font-style="italic" lengthAdjust="spacing" textLength="93.1328" x="795.9336" y="92.5352">&#171;Spring Boot&#187;</text><text fill="#000000" font-family="sans-serif" font-size="14" font-weight="bold" lengthAdjust="spacing" textLength="26.7832" x="829.1084" y="109.0234">app</text></g><!--cluster main--><g class="cluster" data-entity="main" data-source-line="28" data-uid="ent0009" id="cluster_main"><rect fill="#FFFFFF" height="718.17" rx="2.5" ry="2.5" style="stroke:#6495ED;stroke-width:1;" width="811" x="329" y="125"/><rect fill="#FFFFFF" height="10" style="stroke:#6495ED;stroke-width:1;" width="15" x="1120" y="130"/><rect fill="#FFFFFF" height="2" style="stroke:#6495ED;stroke-width:1;" width="4" x="1118" y="132"/><rect fill="#FFFFFF" height="2" style="stroke:#6495ED;stroke-width:1;" width="4" x="1118" y="136"/><text fill="#000000" font-family="sans-serif" font-size="14" font-weight="bold" lengthAdjust="spacing" textLength="35.5537" x="716.7231" y="151.5352">main</text></g><!--cluster infrastructure--><g class="cluster" data-entity="infrastructure" data-source-line="31" data-uid="ent0012" id="cluster_infrastructure"><rect fill="#FFFFFF" height="425.46" rx="2.5" ry="2.5" style="stroke:#6495ED;stroke-width:1;" width="747" x="361" y="385.71"/><rect fill="#FFFFFF" height="10" style="stroke:#6495ED;stroke-width:1;" width="15" x="1088" y="390.71"/><rect fill="#FFFFFF" height="2" style="stroke:#6495ED;stroke-width:1;" width="4" x="1086" y="392.71"/><rect fill="#FFFFFF" height="2" style="stroke:#6495ED;stroke-width:1;" width="4" x="1086" y="396.71"/><text fill="#000000" font-family="sans-serif" font-size="14" font-weight="bold" lengthAdjust="spacing" textLength="100.1807" x="684.4097" y="412.2452">infrastructure</text></g><!--cluster adapterDatabase--><g class="cluster" data-entity="adapterDatabase" data-source-line="32" data-uid="ent0013" id="cluster_adapterDatabase"><rect fill="#FFFFFF" height="326.46" rx="2.5" ry="2.5" style="stroke:#6495ED;stroke-width:1;" width="166" x="401" y="444.71"/><rect fill="#FFFFFF" height="10" style="stroke:#6495ED;stroke-width:1;" width="15" x="547" y="449.71"/><rect fill="#FFFFFF" height="2" style="stroke:#6495ED;stroke-width:1;" width="4" x="545" y="451.71"/><rect fill="#FFFFFF" height="2" style="stroke:#6495ED;stroke-width:1;" width="4" x="545" y="455.71"/><text fill="#000000" font-family="sans-serif" font-size="14" font-weight="bold" lengthAdjust="spacing" textLength="65.0371" x="451.4814" y="471.2452">database</text></g><!--cluster restApi--><g class="cluster" data-entity="restApi" data-source-line="43" data-uid="ent0024" id="cluster_restApi"><rect fill="#FFFFFF" height="310.46" rx="2.5" ry="2.5" style="stroke:#6495ED;stroke-width:1;" width="299" x="769" y="452.71"/><rect fill="#FFFFFF" height="10" style="stroke:#6495ED;stroke-width:1;" width="15" x="1048" y="457.71"/><rect fill="#FFFFFF" height="2" style="stroke:#6495ED;stroke-width:1;" width="4" x="1046" y="459.71"/><rect fill="#FFFFFF" height="2" style="stroke:#6495ED;stroke-width:1;" width="4" x="1046" y="463.71"/><text fill="#000000" font-family="sans-serif" font-size="14" font-weight="bold" lengthAdjust="spacing" textLength="59.1582" x="888.9209" y="479.2452">rest-api</text></g><!--entity generator--><g class="entity" data-entity="generator" data-source-line="22" data-uid="ent0004" id="entity_generator"><rect fill="#FFFFFF" height="62.9766" rx="2.5" ry="2.5" style="stroke:#6495ED;stroke-width:0.5;" width="218.4219" x="46.79" y="274.73"/><rect fill="#FFFFFF" height="10" style="stroke:#6495ED;stroke-width:0.5;" width="15" x="245.2119" y="279.73"/><rect fill="#FFFFFF" height="2" style="stroke:#6495ED;stroke-width:0.5;" width="4" x="243.2119" y="281.73"/><rect fill="#FFFFFF" height="2" style="stroke:#6495ED;stroke-width:0.5;" width="4" x="243.2119" y="285.73"/><text fill="#000000" font-family="sans-serif" font-size="14" font-style="italic" lengthAdjust="spacing" textLength="176.4219" x="62.79" y="308.2652">&#171;Generator Maven Plugin&#187;</text><text fill="#000000" font-family="sans-serif" font-size="14" lengthAdjust="spacing" textLength="66.042" x="117.9799" y="324.7534">generator</text></g><!--entity specification--><g class="entity" data-entity="specification" data-source-line="23" data-uid="ent0005" id="entity_specification"><rect fill="#FFFFFF" height="62.9766" rx="2.5" ry="2.5" style="stroke:#6495ED;stroke-width:0.5;" width="193.3408" x="59.33" y="151.75"/><rect fill="#FFFFFF" height="10" style="stroke:#6495ED;stroke-width:0.5;" width="15" x="232.6708" y="156.75"/><rect fill="#FFFFFF" height="2" style="stroke:#6495ED;stroke-width:0.5;" width="4" x="230.6708" y="158.75"/><rect fill="#FFFFFF" height="2" style="stroke:#6495ED;stroke-width:0.5;" width="4" x="230.6708" y="162.75"/><text fill="#000000" font-family="sans-serif" font-size="14" font-style="italic" lengthAdjust="spacing" textLength="151.3408" x="75.33" y="185.2852">&#171;API definition (yaml)&#187;</text><text fill="#000000" font-family="sans-serif" font-size="14" lengthAdjust="spacing" textLength="85.6338" x="108.1835" y="201.7734">specification</text></g><g class="entity" data-entity="GMN39" data-source-line="61" data-uid="ent0040" id="entity_GMN39"><path d="M1155.83,170.59 L1155.83,179.17 L1114.64,183.17 L1155.83,187.17 L1155.83,195.9005 A0,0 0 0 0 1155.83,195.9005 L1268.1728,195.9005 A0,0 0 0 0 1268.1728,195.9005 L1268.1728,180.59 L1258.1728,170.59 L1155.83,170.59 A0,0 0 0 0 1155.83,170.59" fill="#FFFFE0" style="stroke:#D2B48C;stroke-width:0.5;"/><path d="M1258.1728,170.59 L1258.1728,180.59 L1268.1728,180.59 L1258.1728,170.59" fill="#FFFFE0" style="stroke:#D2B48C;stroke-width:0.5;"/><text fill="#000000" font-family="sans-serif" font-size="13" lengthAdjust="spacing" textLength="91.3428" x="1161.83" y="188.1584">Domain Model</text></g><g class="entity" data-entity="GMN42" data-source-line="65" data-uid="ent0043" id="entity_GMN42"><path d="M1156.22,278.25 L1156.22,302.17 L1121.75,306.17 L1156.22,310.17 L1156.22,334.1816 A0,0 0 0 0 1156.22,334.1816 L1363.7776,334.1816 A0,0 0 0 0 1363.7776,334.1816 L1363.7776,288.25 L1353.7776,278.25 L1156.22,278.25 A0,0 0 0 0 1156.22,278.25" fill="#FFFFE0" style="stroke:#D2B48C;stroke-width:0.5;"/><path d="M1353.7776,278.25 L1353.7776,288.25 L1363.7776,288.25 L1353.7776,278.25" fill="#FFFFE0" style="stroke:#D2B48C;stroke-width:0.5;"/><text fill="#000000" font-family="sans-serif" font-size="13" lengthAdjust="spacing" textLength="111.4521" x="1162.22" y="295.8184">Ports &#171;interfaces&#187;</text><text fill="#000000" font-family="sans-serif" font-size="13" lengthAdjust="spacing" textLength="186.5576" x="1162.22" y="311.1289">Input Ports Impl &#171;Interactors&#187;</text><text fill="#000000" font-family="sans-serif" font-size="13" lengthAdjust="spacing" textLength="50.5781" x="1162.22" y="326.4395">Services</text></g><!--entity domain--><g class="entity" data-entity="domain" data-source-line="29" data-uid="ent0010" id="entity_domain"><rect fill="#FFFFFF" height="46.4883" rx="2.5" ry="2.5" style="stroke:#6495ED;stroke-width:0.5;" width="90.9482" x="1023.53" y="160"/><rect fill="#FFFFFF" height="10" style="stroke:#6495ED;stroke-width:0.5;" width="15" x="1094.4782" y="165"/><rect fill="#FFFFFF" height="2" style="stroke:#6495ED;stroke-width:0.5;" width="4" x="1092.4782" y="167"/><rect fill="#FFFFFF" height="2" style="stroke:#6495ED;stroke-width:0.5;" width="4" x="1092.4782" y="171"/><text fill="#000000" font-family="sans-serif" font-size="14" lengthAdjust="spacing" textLength="50.9482" x="1038.53" y="193.5352">domain</text></g><!--entity application--><g class="entity" data-entity="application" data-source-line="30" data-uid="ent0011" id="entity_application"><rect fill="#FFFFFF" height="46.4883" rx="2.5" ry="2.5" style="stroke:#6495ED;stroke-width:0.5;" width="114.9219" x="1006.54" y="282.97"/><rect fill="#FFFFFF" height="10" style="stroke:#6495ED;stroke-width:0.5;" width="15" x="1101.4619" y="287.97"/><rect fill="#FFFFFF" height="2" style="stroke:#6495ED;stroke-width:0.5;" width="4" x="1099.4619" y="289.97"/><rect fill="#FFFFFF" height="2" style="stroke:#6495ED;stroke-width:0.5;" width="4" x="1099.4619" y="293.97"/><text fill="#000000" font-family="sans-serif" font-size="14" lengthAdjust="spacing" textLength="74.9219" x="1021.54" y="316.5052">application</text></g><g class="entity" data-entity="GMN21" data-source-line="40" data-uid="ent0022" id="entity_GMN21"><path d="M591.44,597.13 L591.44,637.7511 L752.5518,637.7511 L752.5518,607.13 L742.5518,597.13 L591.44,597.13" fill="#FFFFE0" style="stroke:#D2B48C;stroke-width:0.5;"/><path d="M742.5518,597.13 L742.5518,607.13 L752.5518,607.13 L742.5518,597.13" fill="#FFFFE0" style="stroke:#D2B48C;stroke-width:1;"/><text fill="#000000" font-family="sans-serif" font-size="13" lengthAdjust="spacing" textLength="132.3613" x="597.44" y="614.6984">DB Ports &#171;impl&#187; (out)</text><text fill="#000000" font-family="sans-serif" font-size="13" lengthAdjust="spacing" textLength="140.1118" x="597.44" y="630.0089">Database Repositories</text></g><!--entity dbo--><g class="entity" data-entity="dbo" data-source-line="33" data-uid="ent0014" id="entity_dbo"><rect fill="#FFFFFF" height="46.4883" rx="2.5" ry="2.5" style="stroke:#6495ED;stroke-width:0.5;" width="66.2227" x="446.89" y="487.71"/><rect fill="#FFFFFF" height="10" style="stroke:#6495ED;stroke-width:0.5;" width="15" x="493.1127" y="492.71"/><rect fill="#FFFFFF" height="2" style="stroke:#6495ED;stroke-width:0.5;" width="4" x="491.1127" y="494.71"/><rect fill="#FFFFFF" height="2" style="stroke:#6495ED;stroke-width:0.5;" width="4" x="491.1127" y="498.71"/><text fill="#000000" font-family="sans-serif" font-size="14" lengthAdjust="spacing" textLength="26.2227" x="461.89" y="521.2452">dbo</text></g><!--entity repository--><g class="entity" data-entity="repository" data-source-line="34" data-uid="ent0015" id="entity_repository"><rect fill="#FFFFFF" height="46.4883" rx="2.5" ry="2.5" style="stroke:#6495ED;stroke-width:0.5;" width="109.002" x="425.5" y="594.19"/><rect fill="#FFFFFF" height="10" style="stroke:#6495ED;stroke-width:0.5;" width="15" x="514.502" y="599.19"/><rect fill="#FFFFFF" height="2" style="stroke:#6495ED;stroke-width:0.5;" width="4" x="512.502" y="601.19"/><rect fill="#FFFFFF" height="2" style="stroke:#6495ED;stroke-width:0.5;" width="4" x="512.502" y="605.19"/><text fill="#000000" font-family="sans-serif" font-size="14" lengthAdjust="spacing" textLength="69.002" x="440.5" y="627.7252">repository</text></g><!--entity adapter--><g class="entity" data-entity="adapter" data-source-line="35" data-uid="ent0016" id="entity_adapter"><rect fill="#FFFFFF" height="46.4883" rx="2.5" ry="2.5" style="stroke:#6495ED;stroke-width:0.5;" width="91.8506" x="434.07" y="700.68"/><rect fill="#FFFFFF" height="10" style="stroke:#6495ED;stroke-width:0.5;" width="15" x="505.9206" y="705.68"/><rect fill="#FFFFFF" height="2" style="stroke:#6495ED;stroke-width:0.5;" width="4" x="503.9206" y="707.68"/><rect fill="#FFFFFF" height="2" style="stroke:#6495ED;stroke-width:0.5;" width="4" x="503.9206" y="711.68"/><text fill="#000000" font-family="sans-serif" font-size="14" lengthAdjust="spacing" textLength="51.8506" x="449.07" y="734.2152">adapter</text></g><!--entity api_lib--><g class="entity" data-entity="api_lib" data-source-line="44" data-uid="ent0025" id="entity_api_lib"><rect fill="#FFFFFF" height="46.4883" rx="2.5" ry="2.5" style="stroke:#6495ED;stroke-width:0.5;" width="84.4951" x="795.75" y="594.19"/><rect fill="#FFFFFF" height="10" style="stroke:#6495ED;stroke-width:0.5;" width="15" x="860.2451" y="599.19"/><rect fill="#FFFFFF" height="2" style="stroke:#6495ED;stroke-width:0.5;" width="4" x="858.2451" y="601.19"/><rect fill="#FFFFFF" height="2" style="stroke:#6495ED;stroke-width:0.5;" width="4" x="858.2451" y="605.19"/><text fill="#000000" font-family="sans-serif" font-size="14" lengthAdjust="spacing" textLength="44.4951" x="810.75" y="627.7252">api_lib</text></g><!--entity restApiDto--><g class="entity" data-entity="restApiDto" data-source-line="45" data-uid="ent0026" id="entity_restApiDto"><rect fill="#FFFFFF" height="46.4883" rx="2.5" ry="2.5" style="stroke:#6495ED;stroke-width:0.5;" width="62.6475" x="806.68" y="487.71"/><rect fill="#FFFFFF" height="10" style="stroke:#6495ED;stroke-width:0.5;" width="15" x="849.3275" y="492.71"/><rect fill="#FFFFFF" height="2" style="stroke:#6495ED;stroke-width:0.5;" width="4" x="847.3275" y="494.71"/><rect fill="#FFFFFF" height="2" style="stroke:#6495ED;stroke-width:0.5;" width="4" x="847.3275" y="498.71"/><text fill="#000000" font-family="sans-serif" font-size="14" lengthAdjust="spacing" textLength="22.6475" x="821.68" y="521.2452">dto</text></g><!--entity controller--><g class="entity" data-entity="controller" data-source-line="46" data-uid="ent0027" id="entity_controller"><rect fill="#FFFFFF" height="46.4883" rx="2.5" ry="2.5" style="stroke:#6495ED;stroke-width:0.5;" width="105.6455" x="785.18" y="700.68"/><rect fill="#FFFFFF" height="10" style="stroke:#6495ED;stroke-width:0.5;" width="15" x="870.8255" y="705.68"/><rect fill="#FFFFFF" height="2" style="stroke:#6495ED;stroke-width:0.5;" width="4" x="868.8255" y="707.68"/><rect fill="#FFFFFF" height="2" style="stroke:#6495ED;stroke-width:0.5;" width="4" x="868.8255" y="711.68"/><text fill="#000000" font-family="sans-serif" font-size="14" lengthAdjust="spacing" textLength="65.6455" x="800.18" y="734.2152">controller</text></g><g class="entity" data-entity="GMN32" data-source-line="50" data-uid="ent0033" id="entity_GMN32"><path d="M926.24,711.27 L926.24,720.17 L891.24,724.17 L926.24,728.17 L926.24,736.5805 A0,0 0 0 0 926.24,736.5805 L1051.7605,736.5805 A0,0 0 0 0 1051.7605,736.5805 L1051.7605,721.27 L1041.7605,711.27 L926.24,711.27 A0,0 0 0 0 926.24,711.27" fill="#FFFFE0" style="stroke:#D2B48C;stroke-width:0.5;"/><path d="M1041.7605,711.27 L1041.7605,721.27 L1051.7605,721.27 L1041.7605,711.27" fill="#FFFFE0" style="stroke:#D2B48C;stroke-width:0.5;"/><text fill="#000000" font-family="sans-serif" font-size="13" lengthAdjust="spacing" textLength="104.5205" x="932.24" y="728.8384">REST Controllers</text></g><!--reverse link specification to generator--><g class="link" data-entity-1="specification" data-entity-2="generator" data-source-line="24" data-uid="lnk7" id="link_specification_generator"><path d="M156,220.91 C156,239.27 156,256.31 156,274.65" fill="none" id="specification-backto-generator" style="stroke:#00008B;stroke-width:1;"/><polygon fill="#00008B" points="156,214.91,152,223.91,156,219.91,160,223.91,156,214.91" style="stroke:#00008B;stroke-width:1;"/></g><!--reverse link dbo to repository--><g class="link" data-entity-1="dbo" data-entity-2="repository" data-source-line="36" data-uid="lnk18" id="link_dbo_repository"><path d="M480,540.58 C480,558.23 480,576.24 480,593.87" fill="none" id="dbo-backto-repository" style="stroke:#00008B;stroke-width:1;"/><polygon fill="#00008B" points="480,534.58,476,543.58,480,539.58,484,543.58,480,534.58" style="stroke:#00008B;stroke-width:1;"/></g><!--reverse link repository to adapter--><g class="link" data-entity-1="repository" data-entity-2="adapter" data-source-line="37" data-uid="lnk20" id="link_repository_adapter"><path d="M480,647.07 C480,664.72 480,682.73 480,700.36" fill="none" id="repository-backto-adapter" style="stroke:#00008B;stroke-width:1;"/><polygon fill="#00008B" points="480,641.07,476,650.07,480,646.07,484,650.07,480,641.07" style="stroke:#00008B;stroke-width:1;"/></g><!--link adapterDatabase to GMN21--><g class="link" data-entity-1="adapterDatabase" data-entity-2="GMN21" data-source-line="40" data-uid="lnk23" id="link_adapterDatabase_GMN21"><path d="M567.0685,617.17 C567.111,617.17 567.1536,617.17 567.1963,617.17 C567.5381,617.17 567.889,617.17 568.2488,617.17 C574.005,617.17 582.025,617.17 591.08,617.17" fill="none" id="adapterDatabase-GMN21" style="stroke:#00008B;stroke-width:1;stroke-dasharray:7,7;"/></g><!--reverse link restApiDto to api_lib--><g class="link" data-entity-1="restApiDto" data-entity-2="api_lib" data-source-line="47" data-uid="lnk29" id="link_restApiDto_api_lib"><path d="M838,540.58 C838,558.23 838,576.24 838,593.87" fill="none" id="restApiDto-backto-api_lib" style="stroke:#00008B;stroke-width:1;"/><polygon fill="#00008B" points="838,534.58,834,543.58,838,539.58,842,543.58,838,534.58" style="stroke:#00008B;stroke-width:1;"/></g><!--reverse link api_lib to controller--><g class="link" data-entity-1="api_lib" data-entity-2="controller" data-source-line="48" data-uid="lnk31" id="link_api_lib_controller"><path d="M838,647.07 C838,664.72 838,682.73 838,700.36" fill="none" id="api_lib-backto-controller" style="stroke:#00008B;stroke-width:1;"/><polygon fill="#00008B" points="838,641.07,834,650.07,838,646.07,842,650.07,838,641.07" style="stroke:#00008B;stroke-width:1;"/></g><!--reverse link domain to application--><g class="link" data-entity-1="domain" data-entity-2="application" data-source-line="56" data-uid="lnk36" id="link_domain_application"><path d="M1069,212.95 C1069,234.73 1069,260.83 1069,282.58" fill="none" id="domain-backto-application" style="stroke:#00008B;stroke-width:1;"/><polygon fill="#00008B" points="1069,206.95,1065,215.95,1069,211.95,1073,215.95,1069,206.95" style="stroke:#00008B;stroke-width:1;"/></g><!--reverse link application to infrastructure--><g class="link" data-entity-1="application" data-entity-2="infrastructure" data-source-line="57" data-uid="lnk38" id="link_application_infrastructure"><path d="M1100,335.7 C1100,348.515 1100,359.5137 1100,377.9748 C1100,380.2825 1100,382.613 1100,384.961" fill="none" id="application-backto-infrastructure" style="stroke:#00008B;stroke-width:1;"/><polygon fill="#00008B" points="1100,329.7,1096,338.7,1100,334.7,1104,338.7,1100,329.7" style="stroke:#00008B;stroke-width:1;"/></g><!--SRC=[bLJ1QkCm4BtxAtHi3_c34aYQfGIs49h2iYpBejZZH4JMYD6u9IpvzvKiMR4Tzx0v9DAyz-QDHgEuip9Maco4LWRuOa4WyGaBbu4I6ui633yzxIqfSnHhH5uknTz2-Cz1bkSZOMkgPzH8uiT9CKG4gGAAqHU2It4jvjB-Lvvd95Dh_0HQwpR2AoByZEX6qhcBNmT61Xc-yFYkZYV-2Tedl7DwboOKV2lpbmMq6XPQEVujfisGJaJyJy2ztqYA5eoqQbQMi5JYG7G40oGPASXU-erubHzWn4wtHsMMowd8MIXLhKh92aqGhdPRKK6jZ0eHyN2HZNvCkkmW5grTBCL8F3czj7QsV1_lIXzG6wcyjSV2ulvS5MP2N4u9FgNE9uWM_NvALQOcwPZQabk2ZZqE9Vjn0PBbGRf8bvMq3BH9iSmVAge3paG9B3hbktUP0LFQZDp8ljU-rSEKYHk1kwpNzDlDyG6PiH5OJ-lEoJPhiVDFsFcxKetL_f8UiEN76zuVzAqtKk0I2gRgREvRHk1uqKsmRrdOhFB4JivjbNy1XxacCWx46vvhQOc62RKUD2ubJ1Cwg-urYJCjeMiSXQSU-ZPZ8SJRj_sx_s_f4PUXIKVYNOHl_pZ4S32JTnxeoHJsbTq6EUZ7bMNjfbk8Lwn05uCQxXJZXv6ltVYvg6K9hdlcMsDRJk3MJuHdR0D3blxk8sKFzA7ARWnkPjVY-Wy0]--></g></svg>