<svg xmlns="http://www.w3.org/2000/svg" xmlns:xlink="http://www.w3.org/1999/xlink" contentStyleType="text/css" data-diagram-type="DESCRIPTION" height="881px" preserveAspectRatio="none" style="width:1567px;height:881px;background:#FFFFFF;" version="1.1" viewBox="0 0 1567 881" width="1567px" zoomAndPan="magnify"><defs/><g><!--cluster people_list--><g class="cluster" data-entity="people_list" data-source-line="18" data-uid="ent0002" id="cluster_people_list"><rect fill="#FFFFFF" height="868.17" rx="2.5" ry="2.5" style="stroke:#808080;stroke-width:1;" width="1554" x="7" y="7"/><rect fill="#FFFFFF" height="10" style="stroke:#808080;stroke-width:1;" width="15" x="1541" y="12"/><rect fill="#FFFFFF" height="2" style="stroke:#808080;stroke-width:1;" width="4" x="1539" y="14"/><rect fill="#FFFFFF" height="2" style="stroke:#808080;stroke-width:1;" width="4" x="1539" y="18"/><text fill="#000000" font-family="sans-serif" font-size="14" font-style="italic" lengthAdjust="spacing" textLength="93.1328" x="737.4336" y="33.5352">&#171;Spring Boot&#187;</text><text fill="#000000" font-family="sans-serif" font-size="14" font-weight="bold" lengthAdjust="spacing" textLength="80.0898" x="743.9551" y="50.0234">people-list</text></g><!--cluster openapi--><g class="cluster" data-entity="openapi" data-source-line="21" data-uid="ent0003" id="cluster_openapi"><rect fill="#FFFFFF" height="252.96" rx="2.5" ry="2.5" style="stroke:#808080;stroke-width:1;" width="250" x="31" y="100.75"/><rect fill="#FFFFFF" height="10" style="stroke:#808080;stroke-width:1;" width="15" x="261" y="105.75"/><rect fill="#FFFFFF" height="2" style="stroke:#808080;stroke-width:1;" width="4" x="259" y="107.75"/><rect fill="#FFFFFF" height="2" style="stroke:#808080;stroke-width:1;" width="4" x="259" y="111.75"/><text fill="#000000" font-family="sans-serif" font-size="14" font-style="italic" lengthAdjust="spacing" textLength="93.1328" x="109.4336" y="127.2852">&#171;Spring Boot&#187;</text><text fill="#000000" font-family="sans-serif" font-size="14" font-weight="bold" lengthAdjust="spacing" textLength="57.6748" x="127.1626" y="143.7734">openapi</text></g><!--cluster app--><g class="cluster" data-entity="app" data-source-line="27" data-uid="ent0008" id="cluster_app"><rect fill="#FFFFFF" height="785.17" rx="2.5" ry="2.5" style="stroke:#808080;stroke-width:1;" width="1232" x="305" y="66"/><rect fill="#FFFFFF" height="10" style="stroke:#808080;stroke-width:1;" width="15" x="1517" y="71"/><rect fill="#FFFFFF" height="2" style="stroke:#808080;stroke-width:1;" width="4" x="1515" y="73"/><rect fill="#FFFFFF" height="2" style="stroke:#808080;stroke-width:1;" width="4" x="1515" y="77"/><text fill="#000000" font-family="sans-serif" font-size="14" font-style="italic" lengthAdjust="spacing" textLength="93.1328" x="874.4336" y="92.5352">&#171;Spring Boot&#187;</text><text fill="#000000" font-family="sans-serif" font-size="14" font-weight="bold" lengthAdjust="spacing" textLength="26.7832" x="907.6084" y="109.0234">app</text></g><!--cluster main--><g class="cluster" data-entity="main" data-source-line="28" data-uid="ent0009" id="cluster_main"><rect fill="#FFFFFF" height="702.17" rx="2.5" ry="2.5" style="stroke:#6495ED;stroke-width:1;" width="968" x="329" y="125"/><rect fill="#FFFFFF" height="10" style="stroke:#6495ED;stroke-width:1;" width="15" x="1277" y="130"/><rect fill="#FFFFFF" height="2" style="stroke:#6495ED;stroke-width:1;" width="4" x="1275" y="132"/><rect fill="#FFFFFF" height="2" style="stroke:#6495ED;stroke-width:1;" width="4" x="1275" y="136"/><text fill="#000000" font-family="sans-serif" font-size="14" font-weight="bold" lengthAdjust="spacing" textLength="35.5537" x="795.2231" y="151.5352">main</text></g><!--cluster infrastructure--><g class="cluster" data-entity="infrastructure" data-source-line="31" data-uid="ent0012" id="cluster_infrastructure"><rect fill="#FFFFFF" height="409.46" rx="2.5" ry="2.5" style="stroke:#6495ED;stroke-width:1;" width="904" x="361" y="385.71"/><rect fill="#FFFFFF" height="10" style="stroke:#6495ED;stroke-width:1;" width="15" x="1245" y="390.71"/><rect fill="#FFFFFF" height="2" style="stroke:#6495ED;stroke-width:1;" width="4" x="1243" y="392.71"/><rect fill="#FFFFFF" height="2" style="stroke:#6495ED;stroke-width:1;" width="4" x="1243" y="396.71"/><text fill="#000000" font-family="sans-serif" font-size="14" font-weight="bold" lengthAdjust="spacing" textLength="100.1807" x="762.9097" y="412.2452">infrastructure</text></g><!--cluster frontend--><g class="cluster" data-entity="frontend" data-source-line="32" data-uid="ent0013" id="cluster_frontend"><rect fill="#FFFFFF" height="113.48" rx="2.5" ry="2.5" style="stroke:#6495ED;stroke-width:1;" width="135" x="401" y="444.71"/><rect fill="#FFFFFF" height="10" style="stroke:#6495ED;stroke-width:1;" width="15" x="516" y="449.71"/><rect fill="#FFFFFF" height="2" style="stroke:#6495ED;stroke-width:1;" width="4" x="514" y="451.71"/><rect fill="#FFFFFF" height="2" style="stroke:#6495ED;stroke-width:1;" width="4" x="514" y="455.71"/><text fill="#000000" font-family="sans-serif" font-size="14" font-weight="bold" lengthAdjust="spacing" textLength="62.6514" x="437.1743" y="471.2452">frontend</text></g><!--cluster adapterRESTClientIdp--><g class="cluster" data-entity="adapterRESTClientIdp" data-source-line="39" data-uid="ent0018" id="cluster_adapterRESTClientIdp"><rect fill="#FFFFFF" height="219.97" rx="2.5" ry="2.5" style="stroke:#6495ED;stroke-width:1;" width="148" x="576" y="444.71"/><rect fill="#FFFFFF" height="10" style="stroke:#6495ED;stroke-width:1;" width="15" x="704" y="449.71"/><rect fill="#FFFFFF" height="2" style="stroke:#6495ED;stroke-width:1;" width="4" x="702" y="451.71"/><rect fill="#FFFFFF" height="2" style="stroke:#6495ED;stroke-width:1;" width="4" x="702" y="455.71"/><text fill="#000000" font-family="sans-serif" font-size="14" font-weight="bold" lengthAdjust="spacing" textLength="76.7266" x="611.6367" y="471.2452">rest-client</text></g><!--cluster restApi--><g class="cluster" data-entity="restApi" data-source-line="48" data-uid="ent0026" id="cluster_restApi"><rect fill="#FFFFFF" height="310.46" rx="2.5" ry="2.5" style="stroke:#6495ED;stroke-width:1;" width="299" x="926" y="452.71"/><rect fill="#FFFFFF" height="10" style="stroke:#6495ED;stroke-width:1;" width="15" x="1205" y="457.71"/><rect fill="#FFFFFF" height="2" style="stroke:#6495ED;stroke-width:1;" width="4" x="1203" y="459.71"/><rect fill="#FFFFFF" height="2" style="stroke:#6495ED;stroke-width:1;" width="4" x="1203" y="463.71"/><text fill="#000000" font-family="sans-serif" font-size="14" font-weight="bold" lengthAdjust="spacing" textLength="59.1582" x="1045.9209" y="479.2452">rest-api</text></g><!--entity generator--><g class="entity" data-entity="generator" data-source-line="22" data-uid="ent0004" id="entity_generator"><rect fill="#FFFFFF" height="62.9766" rx="2.5" ry="2.5" style="stroke:#6495ED;stroke-width:0.5;" width="218.4219" x="46.79" y="274.73"/><rect fill="#FFFFFF" height="10" style="stroke:#6495ED;stroke-width:0.5;" width="15" x="245.2119" y="279.73"/><rect fill="#FFFFFF" height="2" style="stroke:#6495ED;stroke-width:0.5;" width="4" x="243.2119" y="281.73"/><rect fill="#FFFFFF" height="2" style="stroke:#6495ED;stroke-width:0.5;" width="4" x="243.2119" y="285.73"/><text fill="#000000" font-family="sans-serif" font-size="14" font-style="italic" lengthAdjust="spacing" textLength="176.4219" x="62.79" y="308.2652">&#171;Generator Maven Plugin&#187;</text><text fill="#000000" font-family="sans-serif" font-size="14" lengthAdjust="spacing" textLength="66.042" x="117.9799" y="324.7534">generator</text></g><!--entity specification--><g class="entity" data-entity="specification" data-source-line="23" data-uid="ent0005" id="entity_specification"><rect fill="#FFFFFF" height="62.9766" rx="2.5" ry="2.5" style="stroke:#6495ED;stroke-width:0.5;" width="193.3408" x="59.33" y="151.75"/><rect fill="#FFFFFF" height="10" style="stroke:#6495ED;stroke-width:0.5;" width="15" x="232.6708" y="156.75"/><rect fill="#FFFFFF" height="2" style="stroke:#6495ED;stroke-width:0.5;" width="4" x="230.6708" y="158.75"/><rect fill="#FFFFFF" height="2" style="stroke:#6495ED;stroke-width:0.5;" width="4" x="230.6708" y="162.75"/><text fill="#000000" font-family="sans-serif" font-size="14" font-style="italic" lengthAdjust="spacing" textLength="151.3408" x="75.33" y="185.2852">&#171;API definition (yaml)&#187;</text><text fill="#000000" font-family="sans-serif" font-size="14" lengthAdjust="spacing" textLength="85.6338" x="108.1835" y="201.7734">specification</text></g><g class="entity" data-entity="GMN41" data-source-line="66" data-uid="ent0042" id="entity_GMN41"><path d="M1312.83,170.59 L1312.83,179.17 L1271.64,183.17 L1312.83,187.17 L1312.83,195.9005 A0,0 0 0 0 1312.83,195.9005 L1425.1728,195.9005 A0,0 0 0 0 1425.1728,195.9005 L1425.1728,180.59 L1415.1728,170.59 L1312.83,170.59 A0,0 0 0 0 1312.83,170.59" fill="#FFFFE0" style="stroke:#D2B48C;stroke-width:0.5;"/><path d="M1415.1728,170.59 L1415.1728,180.59 L1425.1728,180.59 L1415.1728,170.59" fill="#FFFFE0" style="stroke:#D2B48C;stroke-width:0.5;"/><text fill="#000000" font-family="sans-serif" font-size="13" lengthAdjust="spacing" textLength="91.3428" x="1318.83" y="188.1584">Domain Model</text></g><g class="entity" data-entity="GMN44" data-source-line="70" data-uid="ent0045" id="entity_GMN44"><path d="M1313.22,278.25 L1313.22,302.17 L1278.75,306.17 L1313.22,310.17 L1313.22,334.1816 A0,0 0 0 0 1313.22,334.1816 L1520.7776,334.1816 A0,0 0 0 0 1520.7776,334.1816 L1520.7776,288.25 L1510.7776,278.25 L1313.22,278.25 A0,0 0 0 0 1313.22,278.25" fill="#FFFFE0" style="stroke:#D2B48C;stroke-width:0.5;"/><path d="M1510.7776,278.25 L1510.7776,288.25 L1520.7776,288.25 L1510.7776,278.25" fill="#FFFFE0" style="stroke:#D2B48C;stroke-width:0.5;"/><text fill="#000000" font-family="sans-serif" font-size="13" lengthAdjust="spacing" textLength="111.4521" x="1319.22" y="295.8184">Ports &#171;interfaces&#187;</text><text fill="#000000" font-family="sans-serif" font-size="13" lengthAdjust="spacing" textLength="186.5576" x="1319.22" y="311.1289">Input Ports Impl &#171;Interactors&#187;</text><text fill="#000000" font-family="sans-serif" font-size="13" lengthAdjust="spacing" textLength="50.5781" x="1319.22" y="326.4395">Services</text></g><!--entity domain--><g class="entity" data-entity="domain" data-source-line="29" data-uid="ent0010" id="entity_domain"><rect fill="#FFFFFF" height="46.4883" rx="2.5" ry="2.5" style="stroke:#6495ED;stroke-width:0.5;" width="90.9482" x="1180.53" y="160"/><rect fill="#FFFFFF" height="10" style="stroke:#6495ED;stroke-width:0.5;" width="15" x="1251.4782" y="165"/><rect fill="#FFFFFF" height="2" style="stroke:#6495ED;stroke-width:0.5;" width="4" x="1249.4782" y="167"/><rect fill="#FFFFFF" height="2" style="stroke:#6495ED;stroke-width:0.5;" width="4" x="1249.4782" y="171"/><text fill="#000000" font-family="sans-serif" font-size="14" lengthAdjust="spacing" textLength="50.9482" x="1195.53" y="193.5352">domain</text></g><!--entity application--><g class="entity" data-entity="application" data-source-line="30" data-uid="ent0011" id="entity_application"><rect fill="#FFFFFF" height="46.4883" rx="2.5" ry="2.5" style="stroke:#6495ED;stroke-width:0.5;" width="114.9219" x="1163.54" y="282.97"/><rect fill="#FFFFFF" height="10" style="stroke:#6495ED;stroke-width:0.5;" width="15" x="1258.4619" y="287.97"/><rect fill="#FFFFFF" height="2" style="stroke:#6495ED;stroke-width:0.5;" width="4" x="1256.4619" y="289.97"/><rect fill="#FFFFFF" height="2" style="stroke:#6495ED;stroke-width:0.5;" width="4" x="1256.4619" y="293.97"/><text fill="#000000" font-family="sans-serif" font-size="14" lengthAdjust="spacing" textLength="74.9219" x="1178.54" y="316.5052">application</text></g><g class="entity" data-entity="GMN15" data-source-line="36" data-uid="ent0016" id="entity_GMN15"><path d="M443.88,604.78 L443.88,630.0905 L552.1222,630.0905 L552.1222,614.78 L542.1222,604.78 L443.88,604.78" fill="#FFFFE0" style="stroke:#D2B48C;stroke-width:0.5;"/><path d="M542.1222,604.78 L542.1222,614.78 L552.1222,614.78 L542.1222,604.78" fill="#FFFFE0" style="stroke:#D2B48C;stroke-width:1;"/><text fill="#000000" font-family="sans-serif" font-size="13" lengthAdjust="spacing" textLength="87.2422" x="449.88" y="622.3484">Web UI (react)</text></g><g class="entity" data-entity="GMN23" data-source-line="45" data-uid="ent0024" id="entity_GMN23"><path d="M747.65,604.78 L747.65,630.0905 L910.3424,630.0905 L910.3424,614.78 L900.3424,604.78 L747.65,604.78" fill="#FFFFE0" style="stroke:#D2B48C;stroke-width:0.5;"/><path d="M900.3424,604.78 L900.3424,614.78 L910.3424,614.78 L900.3424,604.78" fill="#FFFFE0" style="stroke:#D2B48C;stroke-width:1;"/><text fill="#000000" font-family="sans-serif" font-size="13" lengthAdjust="spacing" textLength="141.6924" x="753.65" y="622.3484">Web Ports &#171;impl&#187; (out)</text></g><!--entity mvc--><g class="entity" data-entity="mvc" data-source-line="33" data-uid="ent0014" id="entity_mvc"><rect fill="#FFFFFF" height="46.4883" rx="2.5" ry="2.5" style="stroke:#6495ED;stroke-width:0.5;" width="67.4873" x="425.26" y="487.71"/><rect fill="#FFFFFF" height="10" style="stroke:#6495ED;stroke-width:0.5;" width="15" x="472.7473" y="492.71"/><rect fill="#FFFFFF" height="2" style="stroke:#6495ED;stroke-width:0.5;" width="4" x="470.7473" y="494.71"/><rect fill="#FFFFFF" height="2" style="stroke:#6495ED;stroke-width:0.5;" width="4" x="470.7473" y="498.71"/><text fill="#000000" font-family="sans-serif" font-size="14" lengthAdjust="spacing" textLength="27.4873" x="440.26" y="521.2452">mvc</text></g><!--entity adapter--><g class="entity" data-entity="adapter" data-source-line="40" data-uid="ent0019" id="entity_adapter"><rect fill="#FFFFFF" height="46.4883" rx="2.5" ry="2.5" style="stroke:#6495ED;stroke-width:0.5;" width="91.8506" x="600.07" y="594.19"/><rect fill="#FFFFFF" height="10" style="stroke:#6495ED;stroke-width:0.5;" width="15" x="671.9206" y="599.19"/><rect fill="#FFFFFF" height="2" style="stroke:#6495ED;stroke-width:0.5;" width="4" x="669.9206" y="601.19"/><rect fill="#FFFFFF" height="2" style="stroke:#6495ED;stroke-width:0.5;" width="4" x="669.9206" y="605.19"/><text fill="#000000" font-family="sans-serif" font-size="14" lengthAdjust="spacing" textLength="51.8506" x="615.07" y="627.7252">adapter</text></g><!--entity client--><g class="entity" data-entity="client" data-source-line="41" data-uid="ent0020" id="entity_client"><rect fill="#FFFFFF" height="46.4883" rx="2.5" ry="2.5" style="stroke:#6495ED;stroke-width:0.5;" width="76.9893" x="603.51" y="487.71"/><rect fill="#FFFFFF" height="10" style="stroke:#6495ED;stroke-width:0.5;" width="15" x="660.4993" y="492.71"/><rect fill="#FFFFFF" height="2" style="stroke:#6495ED;stroke-width:0.5;" width="4" x="658.4993" y="494.71"/><rect fill="#FFFFFF" height="2" style="stroke:#6495ED;stroke-width:0.5;" width="4" x="658.4993" y="498.71"/><text fill="#000000" font-family="sans-serif" font-size="14" lengthAdjust="spacing" textLength="36.9893" x="618.51" y="521.2452">client</text></g><!--entity api_lib--><g class="entity" data-entity="api_lib" data-source-line="49" data-uid="ent0027" id="entity_api_lib"><rect fill="#FFFFFF" height="46.4883" rx="2.5" ry="2.5" style="stroke:#6495ED;stroke-width:0.5;" width="84.4951" x="952.75" y="594.19"/><rect fill="#FFFFFF" height="10" style="stroke:#6495ED;stroke-width:0.5;" width="15" x="1017.2451" y="599.19"/><rect fill="#FFFFFF" height="2" style="stroke:#6495ED;stroke-width:0.5;" width="4" x="1015.2451" y="601.19"/><rect fill="#FFFFFF" height="2" style="stroke:#6495ED;stroke-width:0.5;" width="4" x="1015.2451" y="605.19"/><text fill="#000000" font-family="sans-serif" font-size="14" lengthAdjust="spacing" textLength="44.4951" x="967.75" y="627.7252">api_lib</text></g><!--entity restApiDto--><g class="entity" data-entity="restApiDto" data-source-line="50" data-uid="ent0028" id="entity_restApiDto"><rect fill="#FFFFFF" height="46.4883" rx="2.5" ry="2.5" style="stroke:#6495ED;stroke-width:0.5;" width="62.6475" x="963.68" y="487.71"/><rect fill="#FFFFFF" height="10" style="stroke:#6495ED;stroke-width:0.5;" width="15" x="1006.3275" y="492.71"/><rect fill="#FFFFFF" height="2" style="stroke:#6495ED;stroke-width:0.5;" width="4" x="1004.3275" y="494.71"/><rect fill="#FFFFFF" height="2" style="stroke:#6495ED;stroke-width:0.5;" width="4" x="1004.3275" y="498.71"/><text fill="#000000" font-family="sans-serif" font-size="14" lengthAdjust="spacing" textLength="22.6475" x="978.68" y="521.2452">dto</text></g><!--entity controller--><g class="entity" data-entity="controller" data-source-line="51" data-uid="ent0029" id="entity_controller"><rect fill="#FFFFFF" height="46.4883" rx="2.5" ry="2.5" style="stroke:#6495ED;stroke-width:0.5;" width="105.6455" x="942.18" y="700.68"/><rect fill="#FFFFFF" height="10" style="stroke:#6495ED;stroke-width:0.5;" width="15" x="1027.8255" y="705.68"/><rect fill="#FFFFFF" height="2" style="stroke:#6495ED;stroke-width:0.5;" width="4" x="1025.8255" y="707.68"/><rect fill="#FFFFFF" height="2" style="stroke:#6495ED;stroke-width:0.5;" width="4" x="1025.8255" y="711.68"/><text fill="#000000" font-family="sans-serif" font-size="14" lengthAdjust="spacing" textLength="65.6455" x="957.18" y="734.2152">controller</text></g><g class="entity" data-entity="GMN34" data-source-line="55" data-uid="ent0035" id="entity_GMN34"><path d="M1083.24,711.27 L1083.24,720.17 L1048.24,724.17 L1083.24,728.17 L1083.24,736.5805 A0,0 0 0 0 1083.24,736.5805 L1208.7605,736.5805 A0,0 0 0 0 1208.7605,736.5805 L1208.7605,721.27 L1198.7605,711.27 L1083.24,711.27 A0,0 0 0 0 1083.24,711.27" fill="#FFFFE0" style="stroke:#D2B48C;stroke-width:0.5;"/><path d="M1198.7605,711.27 L1198.7605,721.27 L1208.7605,721.27 L1198.7605,711.27" fill="#FFFFE0" style="stroke:#D2B48C;stroke-width:0.5;"/><text fill="#000000" font-family="sans-serif" font-size="13" lengthAdjust="spacing" textLength="104.5205" x="1089.24" y="728.8384">REST Controllers</text></g><!--reverse link specification to generator--><g class="link" data-entity-1="specification" data-entity-2="generator" data-source-line="24" data-uid="lnk7" id="link_specification_generator"><path d="M156,220.91 C156,239.27 156,256.31 156,274.65" fill="none" id="specification-backto-generator" style="stroke:#00008B;stroke-width:1;"/><polygon fill="#00008B" points="156,214.91,152,223.91,156,219.91,160,223.91,156,214.91" style="stroke:#00008B;stroke-width:1;"/></g><!--link frontend to GMN15--><g class="link" data-entity-1="frontend" data-entity-2="GMN15" data-source-line="36" data-uid="lnk17" id="link_frontend_GMN15"><path d="M528,558.5182 C528,558.6708 528,558.8234 528,558.9761 C528,559.2814 528,559.587 528,559.8928 C528,560.5043 528,561.1166 528,561.7294 C528,562.9549 528,564.1821 528,565.4085 C528,570.3141 528,575.2059 528,579.9175 C528,589.3406 528,598.0425 528,604.69" fill="none" id="frontend-GMN15" style="stroke:#00008B;stroke-width:1;stroke-dasharray:7,7;"/></g><!--reverse link client to adapter--><g class="link" data-entity-1="client" data-entity-2="adapter" data-source-line="42" data-uid="lnk22" id="link_client_adapter"><path d="M642,540.58 C642,558.23 642,576.24 642,593.87" fill="none" id="client-backto-adapter" style="stroke:#00008B;stroke-width:1;"/><polygon fill="#00008B" points="642,534.58,638,543.58,642,539.58,646,543.58,642,534.58" style="stroke:#00008B;stroke-width:1;"/></g><!--link adapterRESTClientIdp to GMN23--><g class="link" data-entity-1="adapterRESTClientIdp" data-entity-2="GMN23" data-source-line="45" data-uid="lnk25" id="link_adapterRESTClientIdp_GMN23"><path d="M724.0637,617.17 C724.1054,617.17 724.1473,617.17 724.1893,617.17 C724.2733,617.17 724.3578,617.17 724.4429,617.17 C724.6131,617.17 724.7855,617.17 724.96,617.17 C730.545,617.17 738.34,617.17 747.18,617.17" fill="none" id="adapterRESTClientIdp-GMN23" style="stroke:#00008B;stroke-width:1;stroke-dasharray:7,7;"/></g><!--reverse link restApiDto to api_lib--><g class="link" data-entity-1="restApiDto" data-entity-2="api_lib" data-source-line="52" data-uid="lnk31" id="link_restApiDto_api_lib"><path d="M995,540.58 C995,558.23 995,576.24 995,593.87" fill="none" id="restApiDto-backto-api_lib" style="stroke:#00008B;stroke-width:1;"/><polygon fill="#00008B" points="995,534.58,991,543.58,995,539.58,999,543.58,995,534.58" style="stroke:#00008B;stroke-width:1;"/></g><!--reverse link api_lib to controller--><g class="link" data-entity-1="api_lib" data-entity-2="controller" data-source-line="53" data-uid="lnk33" id="link_api_lib_controller"><path d="M995,647.07 C995,664.72 995,682.73 995,700.36" fill="none" id="api_lib-backto-controller" style="stroke:#00008B;stroke-width:1;"/><polygon fill="#00008B" points="995,641.07,991,650.07,995,646.07,999,650.07,995,641.07" style="stroke:#00008B;stroke-width:1;"/></g><!--reverse link domain to application--><g class="link" data-entity-1="domain" data-entity-2="application" data-source-line="61" data-uid="lnk38" id="link_domain_application"><path d="M1226,212.95 C1226,234.73 1226,260.83 1226,282.58" fill="none" id="domain-backto-application" style="stroke:#00008B;stroke-width:1;"/><polygon fill="#00008B" points="1226,206.95,1222,215.95,1226,211.95,1230,215.95,1226,206.95" style="stroke:#00008B;stroke-width:1;"/></g><!--reverse link application to infrastructure--><g class="link" data-entity-1="application" data-entity-2="infrastructure" data-source-line="62" data-uid="lnk40" id="link_application_infrastructure"><path d="M1257,335.7 C1257,348.515 1257,359.5137 1257,377.9748 C1257,380.2825 1257,382.613 1257,384.961" fill="none" id="application-backto-infrastructure" style="stroke:#00008B;stroke-width:1;"/><polygon fill="#00008B" points="1257,329.7,1253,338.7,1257,334.7,1261,338.7,1257,329.7" style="stroke:#00008B;stroke-width:1;"/></g><!--SRC=[bLJRYjim47ttL-Wn-v0_M0BPf2o6BeHcor9AA8ezJaHaZHZBMKBnlrUoPAtbU4lhXqIQSuxceXar5w4q9rupAHIOcmQ6PCwODH4eiDQeG9d7nxqceKxi2T6iLkntnkntvCNbHDYgSeCIYRsTXG6F89L0tlfCSCkwRExO_pfdWwGgYUz0JxBry9e8tpswvNJfxTt8aK83d_ZuAavdymEaFV3EqojNBk2FC7zgG2rXAKLZ3cnQ3DumZ_zokFMNI563ubhCoW8MGXo9Jg20k45oikTXmrxu5HJRoVOar6er5JKQ2b69WXk1oWdNkvoLK0abd8KjRhoM3q4NFR1bgvShbeWdsNEjPyEtzZxq4RNcmhgsc5lSvrLY9FZbb62Fb343xsBOJwb2LSGRGsrXMeAUdPg2-qHK4Ie3gkpfmoOIqrIknI7Ok_3VzzCHZS6QOHNrKVq6H_OzPmi2NfY7O7OEd32xZuQWCSj22hlnsPPS6w1lN_QlczwQbte-kC0yp67Xm0ZvBoZiTTlRzfI_PpSNJ9BfpZuNZUqBKMjf6sA1xJ_dt0-4JTXjrd40KgRbs84wpY2bmP5uQt26KzYh8PGIA8BXmD3mi-f14pZJ4FeAaNivN85cN33cocMVgW5f8XHBCYww- -rSaKPz7dp7-PWqzH3PnrmuVHfPr6xx1Nl14cIMNakgIESitgnjRwfu0Kt_QkHAjoQ0kRrqoyWTmpOxagViWQx2yXDdNTRz0G00]--></g></svg>